# xmcd
# 
# Track frame offsets:
#     150
#     15020
#     32029
#     56550
#     73338
#     88713
#     106269
#     125206
#     155940
#     182301
#     195935
#     204715
#     226529
#     241179
#     260767
#     271723
#     296047
#     325258
# 
# Disc length: 4422
# 
# Revision: 1
# Processed by: cddbd v1.5.2PL0 Copyright (c) Steve Scherf et al.
# Submitted via: fre:ac v1.0.17
# 
DISCID=f8114412
DTITLE=Blokkmonsta, Uzi and Schwartz - Im Fadenkreuz
DYEAR=2008
DGENRE=Hardcore Rap
TTITLE0=Ein ganz normaler Tag in Deutschland
TTITLE1=Im Fadenkreuz
TTITLE2=Abgehört and Observiert
TTITLE3=Hinterhalt
TTITLE4=Abschaum Der Gesellschaft 2 (mit Dr. Faustus)
TTITLE5=Hassrapper
TTITLE6=Ihr wisst immer noch nichts
TTITLE7=Mundtot (mit Kaisa, Frauenarzt, Manny Marc, MC Basstard and B-Tight)
TTITLE8=Hurensöhne in der Szene (mit Dr. Jekyll)
TTITLE9=Zuviel Dreck
TTITLE10=Die Wahrheit
TTITLE11=Kunstfreiheit
TTITLE12=Hart wie Stein
TTITLE13=Poetische Gerechtigkeit
TTITLE14=6 Uhr am Morgen
TTITLE15=Das Urteil ist gefällt
TTITLE16=Gehasst and Geliebt (Remix mit Darkroom Familia)
TTITLE17=Immernoch da
EXTD=
EXTT0=
EXTT1=
EXTT2=
EXTT3=
EXTT4=
EXTT5=
EXTT6=
EXTT7=
EXTT8=
EXTT9=
EXTT10=
EXTT11=
EXTT12=
EXTT13=
EXTT14=
EXTT15=
EXTT16=
EXTT17=
PLAYORDER=
